HIERARCHY
ROOT hip
{
  OFFSET 0 0 0
  CHANNELS 6 Xposition Yposition Zposition Zrotation Yrotation Xrotation
  JOINT abdomen
  {
    OFFSET 0 20.6881 -0.73152
    CHANNELS 3 Zrotation Xrotation Yrotation
    JOINT chest
    {
      OFFSET 0 11.7043 -0.48768
      CHANNELS 3 Zrotation Xrotation Yrotation
      JOINT neck
      {
        OFFSET 0 22.1894 -2.19456
        CHANNELS 3 Zrotation Xrotation Yrotation
        JOINT head
        {
          OFFSET -0.24384 7.07133 1.2192
          CHANNELS 3 Zrotation Xrotation Yrotation
          JOINT leftEye
          {
            OFFSET 4.14528 8.04674 8.04672
            CHANNELS 3 Zrotation Xrotation Yrotation
            End Site
            {
              OFFSET 1 0 0
            }
          }
          JOINT rightEye
          {
            OFFSET -3.6576 8.04674 8.04672
            CHANNELS 3 Zrotation Xrotation Yrotation
            End Site
            {
              OFFSET 1 0 0
            }
          }
        }
      }
      JOINT rCollar
      {
        OFFSET -2.68224 19.2634 -4.8768
        CHANNELS 3 Zrotation Xrotation Yrotation
        JOINT rShldr
        {
          OFFSET -8.77824 -1.95073 1.46304
          CHANNELS 3 Zrotation Xrotation Yrotation
          JOINT rForeArm
          {
            OFFSET -28.1742 -1.7115 0.48768
            CHANNELS 3 Zrotation Xrotation Yrotation
            JOINT rHand
            {
              OFFSET -22.5879 0.773209 7.07136
              CHANNELS 3 Zrotation Xrotation Yrotation
              JOINT rThumb1
              {
                OFFSET -1.2192 -0.487915 3.41376
                CHANNELS 3 Zrotation Xrotation Yrotation
                JOINT rThumb2
                {
                  OFFSET -3.37035 -0.52449 3.41376
                  CHANNELS 3 Zrotation Xrotation Yrotation
                  End Site
                  {
                    OFFSET -1.78271 -1.18214 1.43049
                  }
                }
              }
              JOINT rIndex1
              {
                OFFSET -7.75947 0.938293 5.60832
                CHANNELS 3 Zrotation Xrotation Yrotation
                JOINT rIndex2
                {
                  OFFSET -2.54057 -0.884171 1.56538
                  CHANNELS 3 Zrotation Xrotation Yrotation
                  End Site
                  {
                    OFFSET -1.62519 -0.234802 1.16502
                  }
                }
              }
              JOINT rMid1
              {
                OFFSET -8.24714 1.18213 3.41376
                CHANNELS 3 Zrotation Xrotation Yrotation
                JOINT rMid2
                {
                  OFFSET -3.10165 -0.590103 1.0647
                  CHANNELS 3 Zrotation Xrotation Yrotation
                  End Site
                  {
                    OFFSET -2.48547 -0.328903 0.83742
                  }
                }
              }
              JOINT rRing1
              {
                OFFSET -8.82822 0.546677 1.51678
                CHANNELS 3 Zrotation Xrotation Yrotation
                JOINT rRing2
                {
                  OFFSET -2.60934 -0.819778 -0.0198488
                  CHANNELS 3 Zrotation Xrotation Yrotation
                  End Site
                  {
                    OFFSET -2.33842 -0.294052 0.168128
                  }
                }
              }
              JOINT rPinky1
              {
                OFFSET -8.27202 -0.0477905 -0.4584
                CHANNELS 3 Zrotation Xrotation Yrotation
                JOINT rPinky2
                {
                  OFFSET -1.82734 -0.647385 -0.700984
                  CHANNELS 3 Zrotation Xrotation Yrotation
                  End Site
                  {
                    OFFSET -1.69225 -0.51767 -0.607171
                  }
                }
              }
            }
          }
        }
      }
      JOINT lCollar
      {
        OFFSET 2.68224 19.2634 -4.8768
        CHANNELS 3 Zrotation Xrotation Yrotation
        JOINT lShldr
        {
          OFFSET 8.77824 -1.95073 1.46304
          CHANNELS 3 Zrotation Xrotation Yrotation
          JOINT lForeArm
          {
            OFFSET 28.1742 -1.7115 0.48768
            CHANNELS 3 Zrotation Xrotation Yrotation
            JOINT lHand
            {
              OFFSET 22.5879 0.773209 7.07136
              CHANNELS 3 Zrotation Xrotation Yrotation
              JOINT lThumb1
              {
                OFFSET 1.2192 -0.487915 3.41376
                CHANNELS 3 Zrotation Xrotation Yrotation
                JOINT lThumb2
                {
                  OFFSET 3.37035 -0.52449 3.41376
                  CHANNELS 3 Zrotation Xrotation Yrotation
                  End Site
                  {
                    OFFSET 1.78271 -1.18214 1.43049
                  }
                }
              }
              JOINT lIndex1
              {
                OFFSET 7.75947 0.938293 5.60832
                CHANNELS 3 Zrotation Xrotation Yrotation
                JOINT lIndex2
                {
                  OFFSET 2.54057 -0.884171 1.56538
                  CHANNELS 3 Zrotation Xrotation Yrotation
                  End Site
                  {
                    OFFSET 1.62519 -0.234802 1.16502
                  }
                }
              }
              JOINT lMid1
              {
                OFFSET 8.24714 1.18213 3.41376
                CHANNELS 3 Zrotation Xrotation Yrotation
                JOINT lMid2
                {
                  OFFSET 3.10165 -0.590103 1.0647
                  CHANNELS 3 Zrotation Xrotation Yrotation
                  End Site
                  {
                    OFFSET 2.48547 -0.328903 0.83742
                  }
                }
              }
              JOINT lRing1
              {
                OFFSET 8.82822 0.546677 1.51678
                CHANNELS 3 Zrotation Xrotation Yrotation
                JOINT lRing2
                {
                  OFFSET 2.60934 -0.819778 -0.0198488
                  CHANNELS 3 Zrotation Xrotation Yrotation
                  End Site
                  {
                    OFFSET 2.33842 -0.294052 0.168128
                  }
                }
              }
              JOINT lPinky1
              {
                OFFSET 8.27202 -0.0477905 -0.4584
                CHANNELS 3 Zrotation Xrotation Yrotation
                JOINT lPinky2
                {
                  OFFSET 1.82734 -0.647385 -0.700984
                  CHANNELS 3 Zrotation Xrotation Yrotation
                  End Site
                  {
                    OFFSET 1.69225 -0.51767 -0.607171
                  }
                }
              }
            }
          }
        }
      }
    }
  }
  JOINT rButtock
  {
    OFFSET -8.77824 4.35084 1.2192
    CHANNELS 3 Zrotation Xrotation Yrotation
    JOINT rThigh
    {
      OFFSET 0 -1.70687 -2.19456
      CHANNELS 3 Zrotation Xrotation Yrotation
      JOINT rShin
      {
        OFFSET 0 -36.8199 0.73152
        CHANNELS 3 Zrotation Xrotation Yrotation
        JOINT rFoot
        {
          OFFSET 0.73152 -45.1104 -5.12064
          CHANNELS 3 Zrotation Xrotation Yrotation
          End Site
          {
            OFFSET -1.1221 -3.69964 12.103
          }
        }
      }
    }
  }
  JOINT lButtock
  {
    OFFSET 8.77824 4.35084 1.2192
    CHANNELS 3 Zrotation Xrotation Yrotation
    JOINT lThigh
    {
      OFFSET 0 -1.70687 -2.19456
      CHANNELS 3 Zrotation Xrotation Yrotation
      JOINT lShin
      {
        OFFSET 0 -36.8199 0.73152
        CHANNELS 3 Zrotation Xrotation Yrotation
        JOINT lFoot
        {
          OFFSET -0.73152 -45.1104 -5.12064
          CHANNELS 3 Zrotation Xrotation Yrotation
          End Site
          {
            OFFSET 1.1221 -3.69964 12.103
          }
        }
      }
    }
  }
}
MOTION
Frames:	4
Frame Time:	0.03333
36.728899999999996 64.4631 61.1858 -2.741613 -8.960664 -4.317094 -8.486437 25.802898 18.921263 -68.736677 -79.893452 -63.082464 -158.369288 -25.140927 132.891381 112.197191 -50.064943 121.975699 -69.617709 26.949913 -38.032954 -63.173145 14.223229 -22.93977 35.225314 11.754392 -38.244022 -119.902848 -36.5157 -151.701353 -167.949419 -23.718281 -51.012139 -25.459751 -67.358807 -50.317396 155.30662 11.922916 144.725313 -153.044185 7.331019 42.772354 -43.640125 34.60411 -82.77813 33.344339 1.465395 -33.601116 173.638864 2.144149 -140.601999 -149.506956 -21.725922 -171.251014 -79.560174 -2.021287 -69.278997 -91.974206 86.470486 88.961246 -151.432769 -2.628401 -108.341855 -34.589399 57.065592 66.951887 -9.380819 1.860859 41.301434 134.340424 77.285294 -178.413776 -61.160186 -16.236826 -145.738394 -67.905965 68.805109 74.940863 167.687203 -8.200179 -105.445819 -155.237137 -45.425356 157.144525 53.19393 0.588463 -157.09036 -38.634379 -41.146653 106.5046 -44.673327 -10.886808 11.768007 127.334733 79.558714 -172.140384 -84.863595 55.911254 93.386225 -94.715574 -37.113569 -94.74236 86.032115 55.446724 115.470113 134.950052 21.567798 124.500244 -13.035042 7.744459 18.932583 39.668013 -46.964765 48.606557 69.926218 34.873569 -81.72133 -73.513419 -26.955295 -86.234584 12.774146 7.170781 -18.425351 -21.772389 -61.516034 -180.0 6.538484 -67.020798 147.801767 176.956679 13.757156 -93.574594
36.7948 59.9236 61.637299999999996 -3.742604 -9.088558 -3.724315 -5.79026 24.865821 -0.0 84.746241 -76.789722 91.856732 177.029037 -40.086573 -45.050677 -137.239004 46.327785 -20.942411 -73.687707 23.627054 -31.193157 -71.220369 16.821363 -23.329426 96.9761 67.595604 -75.950696 40.396624 20.08002 23.053549 -177.503517 8.328945 19.321723 -127.928613 38.626732 92.331562 169.685832 -36.899859 154.459659 -75.46076 -8.354211 -32.072049 -40.753355 36.551341 -83.347027 11.727492 75.897976 -8.917843 165.795821 9.614363 -139.795657 -10.955141 -22.954641 -43.409041 -81.453375 -1.649801 -74.582148 1.998648 0.170179 1.164211 -18.38792 10.572877 -28.784551 -139.932192 -6.264026 -113.67504 122.427419 -24.688284 145.70723 -161.491364 -7.204311 178.430742 5.903455 -25.079411 -95.832934 -32.814766 15.868685 1.818489 107.428257 48.743975 -65.591451 -172.725013 -84.703567 66.887745 -42.797874 -61.472791 101.405081 -178.044158 -27.305279 3.377299 -27.306881 60.380528 -9.100756 161.359993 -35.710355 -94.055081 -109.345333 53.486937 114.753782 135.87861 16.076768 -102.925005 110.608732 65.752301 99.629958 -24.481268 27.893536 16.118252 55.30858 51.872935 46.250778 -80.122643 -26.201284 -70.630109 -34.436844 75.594514 -40.112728 176.87788 37.061481 19.497884 -58.715375 50.670092 -44.623838 100.52665 -26.164143 -180.0 72.728395 -31.91908 139.92267 174.987184 -5.863039 172.637616
36.6693 54.405800000000006 62.0128 -4.787172 -8.270423 -3.115046 -4.256649 23.457241 1.534117 100.394368 -75.151577 107.641468 -165.021841 -43.859981 64.258317 119.276911 22.028028 96.898727 -105.749294 -23.57062 -30.818793 -76.298019 19.658892 -24.877891 -92.593291 -36.256588 -123.807201 -33.906938 28.097691 6.361152 -179.494338 -1.871686 -56.28289 -26.372747 -53.851932 -43.149837 -21.886316 74.131971 -52.88827 -108.374631 -49.08187 89.396337 -106.310707 -11.065795 -89.403461 -177.369258 19.61229 133.591448 -18.704686 16.871135 -78.777231 12.996207 -8.965504 29.976581 87.98386 37.728603 -100.592297 12.154688 36.301613 -13.817937 -86.426175 -21.356123 -62.892976 -166.710216 -3.874823 -142.147075 -41.041737 48.751786 44.063609 129.004626 -10.724892 -158.321349 102.06806 28.328734 117.866689 -45.651718 -25.29366 -33.116106 0.898784 7.724569 6.752538 14.508594 -44.000935 -172.614295 38.434605 7.808228 -151.170825 154.237445 46.406467 127.091688 98.155634 -55.141851 -164.486606 175.393147 -34.938181 168.229679 96.316955 -30.90909 98.608658 79.336943 -11.833124 70.264833 -92.124039 -20.607912 28.716047 77.098077 77.578218 -108.064737 56.010096 52.387931 46.830922 -82.610588 -25.74832 40.894245 85.943335 -21.595645 90.442419 175.395197 61.032568 -19.944056 -144.735564 71.788019 -0.0 141.28303 3.525327 0.0 -59.252681 45.682219 -10.994123 123.568053 -30.415752 177.273861
36.4625 51.17040000000001 62.2988 -5.549326 -7.497933 -2.848445 -2.322573 17.72967 -172.413629 -92.749637 79.361019 -79.57096 178.367318 -49.611277 -14.445226 -158.603101 59.111103 9.175985 -110.775458 -21.797047 -31.175973 -80.286782 20.722553 -24.463862 137.751699 61.924846 -119.224251 45.392656 -0.6878 28.515234 178.890607 1.615398 18.538897 -110.914701 38.136448 78.687415 -112.35252 86.455414 41.056805 -23.903715 4.331987 64.345313 -49.032095 41.014457 -78.894327 -59.596904 -83.469715 -124.559946 49.553945 40.818358 -105.585411 148.24477 -41.68015 125.407557 92.590216 34.724875 -104.444697 -82.267868 -74.294326 -92.905123 -17.08017 17.771334 -30.455221 16.4237 28.025237 -14.925213 76.750018 -45.86666 106.571964 -85.045038 70.803776 98.108748 20.378923 28.531362 -112.197117 -23.006986 12.502944 -6.993091 173.881729 -18.399061 -94.964408 -143.577591 -3.88681 177.947266 -70.849619 -70.714561 92.310362 -161.327608 -6.001651 9.413493 -72.999964 -7.584133 11.071863 129.901131 -59.594106 -152.915894 123.668539 -8.43283 141.720269 65.850863 32.859168 20.172181 7.488456 -15.073771 117.664012 133.500411 16.955689 136.785165 -136.908834 55.429096 -48.645677 -161.081998 20.500445 -112.912565 -69.850405 18.556901 93.691223 -98.038262 -56.159223 -117.922806 141.232773 58.346072 43.332694 178.375951 13.922169 -0.0 -14.096559 72.552855 123.192396 -138.795336 20.589734 12.902558
